<?xml version="1.0" encoding="UTF-8"?>
<!--Generator: Adobe Illustrator 18.1.1, SVG Export Plug-In . SVG Version: 6.00 Build 0)-->
<svg xmlns="http://www.w3.org/2000/svg" xmlns:xlink="http://www.w3.org/1999/xlink" id="Layer_2" width="512px" height="512px" x="0px" y="0px" enable-background="new 0 0 512 512" version="1.1" viewBox="0 0 512 512" xml:space="preserve"><path fill="#00A8EC" d="M40,512c-22.1,0-40-17.9-40-40V40C0,17.9,17.9,0,40,0h432c22.1,0,40,17.9,40,40v432c0,22.1-17.9,40-40,40H40  z"/><path fill="#FFFFFF" fill-rule="evenodd" d="M39.9,377.1c13.6,1.6,33.6-3.2,43.2,2.4  c-2.4,10.5-23.5,2.1-33.6,4.8c-5.4,2.6-0.9,15.1-2.4,21.6c13.1,0.5,28.9-1.7,38.4,2.4c3.3,7.6,3.3,21.2,0,28.8  c-9.8,7-29.2,4.4-45.6,4.8C39.9,420.3,39.9,398.7,39.9,377.1z M47.1,434.7c12.1-0.7,28.4,2.8,33.6-4.8c1.4-7.8-1.6-11.2-2.4-16.8  c-7.7-3.5-20.1-2.3-31.2-2.4C47.1,418.7,47.1,426.7,47.1,434.7z" clip-rule="evenodd" display="none"/><path fill="#FFFFFF" fill-rule="evenodd" d="M86.8,256c15-69.9,54.3-115.6,62.7-192.1  c46.7,28.5,82.2,68.2,125.3,100.2c-60.4,19-116.1,42.6-133.7,104.4c38.5-93.5,223.2-93.1,242.3,29.2c8.2,52.6-13.4,95.7-45.9,125.3  c27.9,2.7,66.8-5.5,87.7,4.2c0,7,0,13.9,0,20.9c-66.8,0-133.7,0-200.5,0c-75-25.3-125.1-75.4-137.8-162.9  C86.8,275.5,86.8,265.7,86.8,256z M245.6,423.1c148.8,16.4,148.7-229.6-8.4-196.3C126.7,250.2,148,412.3,245.6,423.1z" clip-rule="evenodd"/><path fill="#FFFFFF" fill-rule="evenodd" d="M333.9,272.7c6.8,25.8,6.8,78.6,0,104.4  c-33.5,15.5-110.2,9.1-150.4,4.2c-11.6-23.4-19.1-105.7,8.4-117C237.5,268.8,301.7,254.8,333.9,272.7z M321.3,272.7  c-41.8,0-83.5,0-125.3,0C217.9,336.5,299,335.7,321.3,272.7z M191.8,377.1c43.2-2.8,97.4,5.5,133.7-4.2  c-11.2-15.3-46.9-28.2-45.9-41.8c20.8,8.4,33.2,25.3,54.3,33.4c-3.5-28.5,8.2-72.3-8.4-87.7c-12.7,31.8-39.4,49.7-75.2,58.5  c-26.8-15-45.8-37.8-66.8-58.5c-8,22.6-2.6,58.6-4.2,87.7c19.9,4.9,30.9-32.4,58.5-33.4C224.3,348.3,203.1,357.8,191.8,377.1z" clip-rule="evenodd"/></svg>