<?xml version="1.0" encoding="UTF-8"?>
<svg xmlns="http://www.w3.org/2000/svg" viewBox="0 0 140 160" width="512" height="512"><path d="M115.41,43.78,124,38.89l-55.36-32L13.27,38.87l8.54,4.86L29.35,48,68.61,24.91l39.28,23.15Z" style="fill:#225ba8"/><polygon points="75.17 78.32 75.17 85.29 75.17 125.54 91.2 116.28 91.2 84.48 115.41 70.68 115.41 102.31 131.44 93.05 131.44 61.54 131.44 46.34 131.3 46.34 75.17 78.32" style="fill:#225ba8"/><polygon points="75.22 136.22 75.17 136.22 75.17 152.15 75.25 152.15 91.2 143.01 131.44 119.97 131.44 103.94 91.2 127.05 75.22 136.22" style="fill:#225ba8"/><polygon points="62.05 151.69 62.05 151.16 62.05 136.4 62.05 136.59 21.81 113.54 21.81 99.18 62.05 122.29 62.05 107.72 21.81 84.68 21.81 69.9 62.05 92.89 62.05 78.32 21.81 55.4 5.92 46.34 5.77 46.34 5.77 61.54 5.77 73.82 5.77 90.73 5.77 99.04 5.77 99.37 5.77 118.87 5.77 119.2 62.05 151.69" style="fill:red"/></svg>